<?xml version="1.0" standalone="no"?>
<!DOCTYPE svg PUBLIC "-//W3C//DTD SVG 20010904//EN"
 "http://www.w3.org/TR/2001/REC-SVG-20010904/DTD/svg10.dtd">
<svg version="1.0" xmlns="http://www.w3.org/2000/svg"
 width="394.000000pt" height="77.000000pt" viewBox="0 0 394.000000 77.000000"
 preserveAspectRatio="xMidYMid meet">

<g transform="translate(0.000000,77.000000) scale(0.100000,-0.100000)"
fill="#a0a0a0" stroke="none">
<path d="M279 743 c-43 -112 -269 -731 -269 -736 0 -4 44 -7 98 -7 l98 0 23
70 22 71 156 -3 156 -3 22 -65 22 -65 100 -3 101 -3 -69 188 c-39 103 -102
277 -142 385 l-72 198 -118 0 -117 0 -11 -27z m187 -326 c24 -72 44 -132 44
-134 0 -2 -47 -3 -104 -3 l-104 0 50 151 c39 118 53 148 60 134 6 -9 30 -76
54 -148z"/>
<path d="M910 385 l0 -385 270 0 270 0 0 75 0 75 -175 0 -175 0 0 310 0 310
-95 0 -95 0 0 -385z"/>
<path d="M1580 385 l0 -385 95 0 95 0 0 135 0 135 95 0 c120 0 184 14 243 53
65 44 96 108 96 197 0 124 -72 213 -194 239 -28 6 -136 11 -240 11 l-190 0 0
-385z m343 234 c20 -5 46 -20 57 -31 23 -25 27 -82 9 -122 -17 -36 -80 -58
-154 -54 l-60 3 -3 94 c-1 52 -1 100 2 108 7 16 94 18 149 2z"/>
<path d="M2350 385 l0 -385 95 0 95 0 0 165 0 165 145 0 145 0 0 -165 0 -165
100 0 100 0 0 385 0 386 -97 -3 -98 -3 -3 -142 -3 -143 -144 0 -145 0 0 145 0
145 -95 0 -95 0 0 -385z"/>
<path d="M3409 743 c-43 -112 -269 -731 -269 -736 0 -4 44 -7 98 -7 l98 0 23
70 22 71 156 -3 156 -3 22 -65 22 -65 100 -3 101 -3 -69 188 c-39 103 -102
277 -142 385 l-72 198 -118 0 -117 0 -11 -27z m187 -326 c24 -72 44 -132 44
-134 0 -2 -47 -3 -104 -3 l-104 0 50 151 c39 118 53 148 60 134 6 -9 30 -76
54 -148z"/>
</g>
</svg>
