<svg xmlns="http://www.w3.org/2000/svg" version="1.0" preserveAspectRatio="xMidYMid meet" viewBox="1.16 -0.07 462.14 198.07">

<g transform="translate(0.000000,480.000000) scale(0.100000,-0.100000)" fill="#000000" stroke="none">
<path d="M15 4788 c-3 -7 -4 -452 -3 -988 l3 -975 379 -3 c505 -3 622 11 710 88 77 68 105 188 106 456 0 273 -19 354 -106 433 -36 33 -74 56 -119 72 l-65 23 60 22 c161 58 198 133 188 387 -9 216 -55 324 -176 408 -99 69 -251 89 -683 89 -223 0 -291 -3 -294 -12z m645 -363 c24 -24 25 -31 28 -159 5 -206 -9 -236 -114 -236 l-44 0 0 216 0 217 52 -6 c37 -5 59 -14 78 -32z m-12 -726 c12 -5 27 -20 32 -34 13 -34 13 -406 0 -439 -12 -33 -45 -53 -102 -61 l-48 -7 0 281 0 282 48 -7 c26 -4 57 -11 70 -15z"/>
<path d="M1395 4788 c-3 -7 -4 -452 -3 -988 l3 -975 445 0 445 0 3 198 2 197 -190 0 -190 0 0 220 0 220 160 0 160 0 0 179 c0 154 -2 180 -16 185 -9 3 -81 6 -160 6 l-144 0 0 185 0 185 170 0 170 0 0 200 0 200 -425 0 c-331 0 -427 -3 -430 -12z"/>
<path d="M2317 4793 c-4 -3 -7 -93 -7 -199 l0 -193 148 -3 147 -3 5 -785 5 -785 258 -3 257 -2 0 790 0 789 153 3 152 3 3 175 c1 96 0 185 -3 198 l-5 22 -554 0 c-304 0 -556 -3 -559 -7z"/>
<path d="M3595 4788 c-2 -7 -9 -51 -15 -98 -6 -47 -17 -134 -25 -195 -8 -60 -21 -162 -29 -225 -14 -108 -23 -172 -61 -460 -9 -63 -22 -164 -30 -225 -8 -60 -30 -227 -49 -370 -19 -143 -37 -290 -41 -328 l-7 -67 263 2 264 3 13 145 c7 80 15 160 18 178 l5 32 84 0 c56 0 86 -4 92 -12 4 -7 12 -87 18 -178 l10 -165 264 -3 264 -2 -6 42 c-4 24 -20 135 -37 248 -29 192 -78 522 -100 670 -5 36 -23 157 -40 270 -17 113 -42 279 -55 370 -48 322 -54 361 -60 370 -10 16 -734 13 -740 -2z m411 -630 c7 -90 20 -235 29 -323 9 -88 18 -193 22 -233 l6 -73 -84 3 -84 3 3 60 c2 56 33 337 52 485 27 210 33 250 37 246 3 -3 11 -78 19 -168z"/>
</g>
</svg>
